# xmcd
#
# Track frame offsets: 
#        150
#        94937
#        162959
#        235717
#        301788
#
# Disc length: 4764 seconds
#
# Revision: 0
# Processed by: cddbd v1.5PL3 Copyright (c) Steve Scherf et al.
# Submitted via: ExactAudioCopy v0.95a3
#
DISCID=2f129a05
DTITLE=Shura Karetny - Skazki The Best
DYEAR=2002
DGENRE=Country
TTITLE0=Alenky Zvetochek
TTITLE1=Ruslanka
TTITLE2=Skazka O Tsare Condome
TTITLE3=Snegurackkom
TTITLE4=Zolushka
EXTD=
EXTT0=
EXTT1=
EXTT2=
EXTT3=
EXTT4=
PLAYORDER=
